<svg xmlns="http://www.w3.org/2000/svg" data-name="Layer 1" viewBox="0 0 80 100" x="0px" y="0px"><title>subtotal-continuation-intermediateSuccess</title><path d="M43.59,35.58,39,40.17l-2.58-2.59a2,2,0,0,0-2.83,2.83l4,4A2,2,0,0,0,39,45a2,2,0,0,0,1.42-.59l6-6a2,2,0,0,0-2.83-2.83Z"/><path d="M75.41,38.59l-6-6a2,2,0,0,0-2.82,2.82L69.17,38H52.83a13,13,0,0,0-25.66,0H6a2,2,0,0,0,0,4H27.17a13,13,0,0,0,25.66,0H69.17l-2.58,2.59a2,2,0,1,0,2.82,2.82l6-6A2,2,0,0,0,75.41,38.59ZM40,49a9,9,0,1,1,9-9A9,9,0,0,1,40,49Z"/><text x="0" y="95" fill="#000000" font-size="5px" font-weight="bold" font-family="'Helvetica Neue', Helvetica, Arial-Unicode, Arial, Sans-serif">Created by Timofey Rostilov</text><text x="0" y="100" fill="#000000" font-size="5px" font-weight="bold" font-family="'Helvetica Neue', Helvetica, Arial-Unicode, Arial, Sans-serif">from the Noun Project</text></svg>